<?xml version="1.0" standalone="no"?>
<!DOCTYPE svg PUBLIC "-//W3C//DTD SVG 20010904//EN"
 "http://www.w3.org/TR/2001/REC-SVG-20010904/DTD/svg10.dtd">
<svg version="1.0" xmlns="http://www.w3.org/2000/svg"
 width="365.000000pt" height="400.000000pt" viewBox="0 0 365.000000 400.000000"
 preserveAspectRatio="xMidYMid meet">

<g transform="translate(0.000000,400.000000) scale(0.100000,-0.100000)"
fill="#000000" stroke="none">
<path d="M1688 3693 c6 -2 18 -2 25 0 6 3 1 5 -13 5 -14 0 -19 -2 -12 -5z"/>
<path d="M1968 3693 c7 -3 16 -2 19 1 4 3 -2 6 -13 5 -11 0 -14 -3 -6 -6z"/>
<path d="M1608 3683 c6 -2 18 -2 25 0 6 3 1 5 -13 5 -14 0 -19 -2 -12 -5z"/>
<path d="M2048 3683 c6 -2 18 -2 25 0 6 3 1 5 -13 5 -14 0 -19 -2 -12 -5z"/>
<path d="M1548 3673 c7 -3 16 -2 19 1 4 3 -2 6 -13 5 -11 0 -14 -3 -6 -6z"/>
<path d="M2118 3673 c7 -3 16 -2 19 1 4 3 -2 6 -13 5 -11 0 -14 -3 -6 -6z"/>
<path d="M1498 3663 c7 -3 16 -2 19 1 4 3 -2 6 -13 5 -11 0 -14 -3 -6 -6z"/>
<path d="M1345 3630 c-13 -5 -14 -9 -5 -9 8 0 24 4 35 9 13 5 14 9 5 9 -8 0
-24 -4 -35 -9z"/>
<path d="M2305 3630 c27 -12 43 -12 25 0 -8 5 -22 9 -30 9 -10 0 -8 -3 5 -9z"/>
<path d="M1585 3571 c-354 -66 -618 -203 -860 -446 -133 -133 -218 -251 -296
-410 -98 -201 -140 -350 -161 -577 -18 -191 5 -406 63 -590 12 -38 24 -66 26
-64 3 2 -3 26 -12 52 -9 26 -14 53 -11 60 3 7 0 14 -6 16 -14 5 -18 98 -9 189
l7 64 6 -90 c21 -293 157 -594 375 -829 66 -71 210 -196 226 -196 7 0 4 5 -6
11 -9 6 -15 14 -12 20 4 5 -2 6 -12 2 -16 -6 -17 -5 -3 12 14 17 13 18 -2 12
-12 -4 -15 -2 -11 9 7 18 13 18 41 -2 12 -8 19 -20 16 -26 -4 -6 -2 -8 3 -5 6
4 38 -11 73 -33 145 -94 311 -164 490 -207 83 -19 141 -26 280 -30 96 -2 199
-1 229 4 38 5 -14 8 -170 8 -207 0 -232 2 -335 27 -282 67 -538 210 -738 413
-79 79 -199 236 -188 246 4 4 239 100 522 214 283 114 547 221 585 237 156 66
131 67 295 -1 401 -166 1082 -441 1090 -441 66 0 -237 -334 -403 -444 -160
-106 -343 -186 -521 -226 -45 -10 -71 -19 -60 -19 36 -2 208 46 302 84 246 99
488 286 641 495 34 47 77 94 96 105 l33 21 -641 366 c-353 202 -650 370 -659
374 -16 6 -18 -3 -18 -92 0 -68 -3 -94 -10 -84 -5 8 -10 52 -10 98 0 45 -4 82
-8 82 -5 0 -299 -167 -655 -370 -356 -204 -652 -370 -658 -370 -7 0 -9 9 -5
23 3 12 6 25 6 28 0 7 63 56 480 379 173 134 340 263 370 287 30 23 98 76 151
117 l95 73 47 -24 c60 -30 61 -23 2 11 -25 15 -45 33 -45 41 0 8 29 234 65
502 36 268 64 492 62 497 -2 5 -34 -209 -71 -475 -37 -266 -71 -498 -74 -516
-6 -27 -52 -67 -322 -279 -173 -136 -333 -261 -355 -279 -203 -161 -379 -297
-389 -301 -26 -10 -113 217 -152 396 -27 121 -27 458 -1 580 55 252 154 461
318 665 131 163 325 314 513 400 165 74 319 116 492 134 62 6 88 14 105 30 51
47 49 75 50 -716 1 -406 1 -746 0 -755 -3 -27 11 -23 118 34 l98 53 119 -91
c118 -90 619 -475 848 -652 65 -51 122 -92 126 -92 25 0 151 349 150 414 -1
11 -12 -19 -25 -69 -27 -107 -68 -221 -102 -288 -22 -44 -26 -47 -43 -35 -22
15 -410 319 -595 465 -71 56 -203 159 -292 228 -139 107 -163 130 -168 158 -9
51 -174 1226 -181 1288 -4 34 -2 59 4 63 5 3 9 -2 8 -11 -1 -15 12 -19 74 -25
41 -4 109 -15 150 -24 41 -10 82 -18 90 -19 8 -1 22 -5 30 -8 14 -6 124 -47
165 -61 l20 -8 -20 13 c-25 16 -163 70 -190 73 -11 2 -28 4 -37 5 -11 1 -15 6
-12 16 4 8 1 15 -6 15 -6 0 -8 -5 -4 -12 5 -8 0 -9 -17 -5 -13 4 -33 7 -44 8
l-20 0 20 9 c13 6 15 9 5 9 -13 1 -13 3 -1 10 10 6 -3 13 -43 21 -32 6 -56 14
-53 16 8 9 156 -25 260 -60 358 -120 654 -365 847 -701 67 -115 112 -223 104
-248 -3 -11 -2 -17 3 -14 5 3 9 -2 9 -11 1 -9 13 -56 27 -104 33 -112 56 -268
59 -399 l2 -104 6 100 c3 55 7 90 8 77 1 -12 8 -25 16 -28 64 -25 37 -357 -48
-589 -14 -38 -23 -71 -22 -73 7 -7 48 114 76 223 147 580 -57 1212 -515 1594
-205 171 -416 275 -685 338 -148 34 -437 42 -585 14z m441 -39 c-10 -2 -22 0
-28 6 -6 6 0 7 19 4 21 -5 23 -7 9 -10z m68 -17 c-7 -17 -32 -19 -54 -4 -11 8
-8 9 13 4 19 -4 26 -2 22 5 -3 5 1 10 9 10 10 0 13 -6 10 -15z m-221 -165 c-3
-11 -7 -20 -9 -20 -2 0 -4 9 -4 20 0 11 4 20 9 20 5 0 7 -9 4 -20z m6 -143
c-1 -106 -6 -98 -12 20 -2 45 0 80 5 77 4 -3 7 -47 7 -97z m-2 -154 c-3 -10
-5 -4 -5 12 0 17 2 24 5 18 2 -7 2 -21 0 -30z m11 -144 c1 19 4 32 7 29 3 -3
2 -36 -2 -74 l-7 -69 -7 50 c-4 28 -7 75 -6 105 l0 55 7 -65 c4 -36 7 -50 8
-31z m33 -449 c-8 -40 -8 -37 -7 30 0 41 -2 145 -6 230 l-6 155 13 -185 c9
-112 11 -203 6 -230z m-54 258 c-2 -18 -4 -6 -4 27 0 33 2 48 4 33 2 -15 2
-42 0 -60z m27 -128 c3 -69 8 -159 10 -200 5 -69 4 -70 -4 -21 -11 69 -24 358
-17 351 4 -3 9 -62 11 -130z m-17 -252 c-2 -13 -4 -3 -4 22 0 25 2 35 4 23 2
-13 2 -33 0 -45z m60 -10 c-3 -7 -5 -2 -5 12 0 14 2 19 5 13 2 -7 2 -19 0 -25z
m-3 -147 c-3 -9 -8 -27 -10 -40 -1 -13 -6 -26 -10 -30 -4 -3 -4 4 -1 17 3 15
1 22 -6 19 -7 -2 -11 -20 -10 -43 2 -35 1 -36 -5 -9 -4 17 -5 57 -3 90 l5 60
7 -45 6 -45 2 45 c3 38 4 41 11 20 7 -22 8 -21 11 15 l2 40 4 -39 c3 -21 1
-46 -3 -55z m-1607 -283 c-2 -13 -4 -3 -4 22 0 25 2 35 4 23 2 -13 2 -33 0
-45z m-17 -95 c0 -23 -4 -33 -9 -27 -9 8 -4 64 5 64 2 0 4 -17 4 -37z m531
-946 c-10 -9 -11 -8 -5 6 3 10 9 15 12 12 3 -3 0 -11 -7 -18z m49 -17 c0 -14
-20 -22 -36 -16 -12 5 -13 8 -2 20 13 14 38 11 38 -4z"/>
<path d="M1180 3570 c-8 -5 -10 -10 -5 -10 6 0 17 5 25 10 8 5 11 10 5 10 -5
0 -17 -5 -25 -10z"/>
<path d="M2500 3560 c8 -5 20 -10 25 -10 6 0 3 5 -5 10 -8 5 -19 10 -25 10 -5
0 -3 -5 5 -10z"/>
<path d="M1133 3550 c-13 -5 -23 -11 -23 -14 0 -7 40 6 46 15 6 10 6 10 -23
-1z"/>
<path d="M998 3480 c-20 -11 -39 -24 -43 -29 -3 -6 15 2 40 15 25 14 45 28 45
30 0 6 -1 5 -42 -16z"/>
<path d="M2640 3496 c0 -3 14 -12 30 -21 17 -9 30 -13 30 -11 0 3 -13 12 -30
21 -16 9 -30 13 -30 11z"/>
<path d="M879 3404 c-131 -89 -299 -251 -384 -369 -39 -54 -21 -36 55 55 100
119 232 238 370 332 14 9 22 17 19 17 -4 1 -31 -15 -60 -35z"/>
<path d="M2790 3406 c0 -2 8 -10 18 -17 15 -13 16 -12 3 4 -13 16 -21 21 -21
13z"/>
<path d="M1761 3374 c0 -11 3 -14 6 -6 3 7 2 16 -1 19 -3 4 -6 -2 -5 -13z"/>
<path d="M2451 3376 c10 -9 69 -36 69 -32 0 6 -55 36 -66 36 -4 0 -5 -2 -3 -4z"/>
<path d="M2875 3339 c77 -66 215 -203 215 -213 0 -4 17 -29 38 -55 76 -91 212
-324 212 -363 0 -8 4 -18 9 -23 12 -14 52 -125 45 -125 -4 0 -2 -6 3 -12 9
-11 19 -49 39 -145 2 -13 1 -23 -4 -23 -4 0 -9 15 -10 33 -1 17 -6 46 -11 62
l-9 30 -2 -30 -1 -30 -14 38 c-8 21 -16 49 -18 62 -1 12 -8 29 -15 37 -7 9
-18 30 -25 49 -16 44 -86 179 -92 179 -3 0 15 -41 41 -91 182 -364 213 -820
83 -1214 -160 -481 -543 -862 -1024 -1020 -402 -132 -856 -96 -1226 96 -97 50
-224 135 -294 195 -29 24 -55 42 -58 39 -4 -3 -5 -2 -2 2 3 3 -24 36 -59 72
-180 186 -294 373 -375 618 -53 157 -72 267 -78 453 -15 432 144 847 445 1166
37 38 26 29 -24 -21 -219 -221 -365 -526 -424 -883 -8 -49 -20 -82 -36 -101
-37 -44 -46 -79 -45 -176 4 -297 135 -655 326 -885 70 -85 157 -170 168 -163
5 3 7 2 4 -4 -12 -19 155 -159 175 -147 6 4 8 3 5 -4 -4 -6 24 -31 65 -58 80
-52 307 -169 350 -179 16 -4 25 -11 22 -16 -3 -5 2 -6 11 -3 11 5 14 2 9 -10
-3 -9 -2 -16 4 -16 6 0 12 4 14 10 2 5 13 7 25 4 13 -4 20 -10 18 -15 -3 -4 3
-12 12 -18 16 -9 14 -10 -10 -11 -16 0 -26 -4 -22 -10 8 -13 6 -12 -36 1 -253
82 -462 212 -657 410 -51 52 -116 126 -145 166 -95 127 -91 123 -71 88 99
-170 296 -366 499 -498 441 -284 1000 -345 1498 -163 423 155 789 505 967 925
140 329 171 725 84 1073 -48 192 -124 366 -230 524 -116 174 -215 280 -369
398 l-50 38 50 -43z m572 -1016 c-3 -10 -5 -4 -5 12 0 17 2 24 5 18 2 -7 2
-21 0 -30z m10 -45 c-3 -8 -6 -5 -6 6 -1 11 2 17 5 13 3 -3 4 -12 1 -19z m10
-105 c-3 -10 -5 -2 -5 17 0 19 2 27 5 18 2 -10 2 -26 0 -35z m-2022 -1753
c-17 -11 -34 -20 -40 -20 -5 1 0 6 13 13 12 7 20 15 18 18 -3 3 5 6 16 6 19 2
18 0 -7 -17z m48 -7 c-7 -2 -19 -2 -25 0 -7 3 -2 5 12 5 14 0 19 -2 13 -5z"/>
<path d="M1752 3305 c0 -16 2 -22 5 -12 2 9 2 23 0 30 -3 6 -5 -1 -5 -18z"/>
<path d="M2564 3317 c111 -71 136 -86 136 -82 0 8 -137 95 -147 94 -4 0 0 -6
11 -12z"/>
<path d="M1742 3225 c0 -16 2 -22 5 -12 2 9 2 23 0 30 -3 6 -5 -1 -5 -18z"/>
<path d="M2745 3199 c95 -78 265 -260 324 -350 68 -101 81 -118 61 -79 -36 69
-116 176 -210 280 -35 39 -149 138 -185 162 -17 11 -12 5 10 -13z"/>
<path d="M416 2923 c-37 -59 -95 -165 -66 -123 31 46 118 190 114 190 -2 0
-24 -30 -48 -67z"/>
<path d="M312 2735 c-30 -62 -27 -71 4 -12 14 27 24 51 22 53 -3 2 -14 -17
-26 -41z"/>
<path d="M3167 2685 c15 -30 29 -53 31 -51 4 5 -46 106 -53 106 -3 0 7 -25 22
-55z"/>
<path d="M276 2655 c-9 -26 -7 -32 5 -12 6 10 9 21 6 23 -2 3 -7 -2 -11 -11z"/>
<path d="M256 2605 c-9 -26 -7 -32 5 -12 6 10 9 21 6 23 -2 3 -7 -2 -11 -11z"/>
<path d="M3210 2595 c0 -5 5 -17 10 -25 5 -8 10 -10 10 -5 0 6 -5 17 -10 25
-5 8 -10 11 -10 5z"/>
<path d="M216 2484 c-4 -14 -5 -28 -3 -31 3 -2 8 8 11 23 4 14 5 28 3 31 -3 2
-8 -8 -11 -23z"/>
<path d="M201 2424 c0 -11 3 -14 6 -6 3 7 2 16 -1 19 -3 4 -6 -2 -5 -13z"/>
<path d="M191 2384 c0 -11 3 -14 6 -6 3 7 2 16 -1 19 -3 4 -6 -2 -5 -13z"/>
<path d="M181 2334 c0 -11 3 -14 6 -6 3 7 2 16 -1 19 -3 4 -6 -2 -5 -13z"/>
<path d="M171 2274 c0 -11 3 -14 6 -6 3 7 2 16 -1 19 -3 4 -6 -2 -5 -13z"/>
<path d="M162 2200 c0 -14 2 -19 5 -12 2 6 2 18 0 25 -3 6 -5 1 -5 -13z"/>
<path d="M151 2104 c0 -11 3 -14 6 -6 3 7 2 16 -1 19 -3 4 -6 -2 -5 -13z"/>
<path d="M3316 1831 c-3 -41 -4 -76 -2 -78 6 -6 19 123 14 139 -3 7 -8 -20
-12 -61z"/>
<path d="M375 1441 c-3 -6 1 -25 10 -43 9 -21 12 -24 8 -8 -4 14 -7 33 -7 43
0 19 -2 21 -11 8z"/>
<path d="M3276 1375 c-9 -26 -7 -32 5 -12 6 10 9 21 6 23 -2 3 -7 -2 -11 -11z"/>
<path d="M406 1347 c3 -10 9 -15 12 -12 3 3 0 11 -7 18 -10 9 -11 8 -5 -6z"/>
<path d="M426 1307 c3 -10 9 -15 12 -12 3 3 0 11 -7 18 -10 9 -11 8 -5 -6z"/>
<path d="M446 1267 c3 -10 9 -15 12 -12 3 3 0 11 -7 18 -10 9 -11 8 -5 -6z"/>
<path d="M3225 1269 c-4 -6 -5 -12 -2 -15 2 -3 7 2 10 11 7 17 1 20 -8 4z"/>
<path d="M363 1185 c9 -16 23 -39 32 -50 9 -11 7 -2 -6 20 -27 49 -47 72 -26
30z"/>
<path d="M760 856 c0 -2 8 -10 18 -17 15 -13 16 -12 3 4 -13 16 -21 21 -21 13z"/>
<path d="M1265 450 c27 -12 43 -12 25 0 -8 5 -22 9 -30 9 -10 0 -8 -3 5 -9z"/>
</g>
</svg>
